<?xml version="1.0" encoding="UTF-8" standalone="no"?>
<svg
   width="170.667"
   height="85.333"
   version="1.0"
   viewBox="0 0 128 64"
   id="svg2"
   sodipodi:docname="selection_arrow.svg"
   inkscape:version="1.4.3 (0d15f75042, 2025-12-25)"
   xmlns:inkscape="http://www.inkscape.org/namespaces/inkscape"
   xmlns:sodipodi="http://sodipodi.sourceforge.net/DTD/sodipodi-0.dtd"
   xmlns="http://www.w3.org/2000/svg"
   xmlns:svg="http://www.w3.org/2000/svg">
  <defs
     id="defs2" />
  <sodipodi:namedview
     id="namedview2"
     pagecolor="#ffffff"
     bordercolor="#000000"
     borderopacity="0.25"
     inkscape:showpageshadow="2"
     inkscape:pageopacity="0.0"
     inkscape:pagecheckerboard="0"
     inkscape:deskcolor="#d1d1d1"
     inkscape:zoom="9.7148244"
     inkscape:cx="85.333504"
     inkscape:cy="42.615284"
     inkscape:window-width="2560"
     inkscape:window-height="1412"
     inkscape:window-x="0"
     inkscape:window-y="0"
     inkscape:window-maximized="1"
     inkscape:current-layer="svg2" />
  <path
     d="M62.845 63.889c-4.115-.093-11.79-.26-17.058-.37-5.267-.112-9.74-.212-9.942-.224l-.365-.022L48.043 51.26C71.654 28.677 84.85 16.247 85.212 16.247c.244 0 3.807 3.238 11.755 10.682 9.329 8.739 13.073 12.288 25.515 24.19l12.707 12.154-.557.023c-.307.012-4.567.109-9.467.214l-17.942.388-9.032.197-6.396-6.343c-3.517-3.488-6.424-6.342-6.46-6.342s-2.94 2.851-6.456 6.337l-6.393 6.336-1.08-.013c-.595-.007-4.447-.089-8.561-.181"
     style="fill:#000000;fill-opacity:1;stroke:none;stroke-width:0.142982;stroke-opacity:1"
     transform="scale(.75)"
     id="path2" />
</svg>
