<svg xmlns="http://www.w3.org/2000/svg" width="341.333" height="341.333" viewBox="0 0 256 256"><path d="M125.6 1.2c-.3.7-.6 7.5-.9 15l-.4 13.7-12.8 21.3c-9.2 15.4-12.9 22.4-13.3 25.3-.4 3.6.6 6.2 7.8 20.4 4.4 9 7.9 16.5 7.7 16.8-.3.2-7.7-3.2-16.4-7.6-20.7-10.5-21-10.5-36.3-.6-3.6 2.4-12.1 7.6-19 11.6l-12.5 7.4-14 .3c-7.7.1-14.4.7-15 1.3s-.6 1.5.1 2.7c1 1.4 3.1 1.7 14.8 2l13.7.3 18.6 11.2C73 157.6 73.9 158 77.6 158c2.2 0 8.9-2.8 19.4-8.1 8.9-4.5 16.3-7.9 16.6-7.6s-3.2 7.8-7.6 16.8c-7.2 14.3-8.2 16.8-7.7 20.4.3 3 3.1 8.5 10 19.7 5.3 8.5 11.1 18.5 13.1 22.2l3.5 6.6-.2 12.5c-.1 10.5.1 12.7 1.5 14.1s2 1.5 3.2.5c1.1-.9 1.5-4.4 1.8-15.4l.3-14.2 11.3-18.4c13.6-22.1 15.2-25.2 15.2-29 0-1.6-3.5-10-8-19.1-4.5-8.9-7.9-16.4-7.7-16.7.3-.2 7.8 3.2 16.7 7.7 10 4.9 17.4 8 19.4 8 3.5 0 6.1-1.4 30.1-16.1l17-10.4 14.2-.3c14.6-.4 17.3-1.1 16-4.6-.5-1.1-3.6-1.5-14.9-1.8l-14.3-.3-17.5-10.4C183.1 98.7 181.9 98 177.8 98c-2.8 0-7.9 2.2-19.4 8.1-8.5 4.4-15.8 7.9-16.1 7.6-.2-.3 3.2-7.9 7.7-16.9 10.2-20.3 10.2-19.7-.8-37.6-4.3-7-10-16.5-12.8-21.2l-4.9-8.5L131 15C130.5.9 130.4.5 128.2.2c-1.2-.2-2.4.3-2.6 1m4.2 37.3c.9 2 .8 2.6-.5 3.3-1.7 1-.8 3.6 1 2.9 1.7-.6 4.7 1.1 4.7 2.8 0 .8-1.3 1.5-3.2 1.7-5 .5-4.8 2.8.3 2.8 3.9 0 7.9 2.1 7.9 4.1 0 .4-2.6.9-5.7 1.1-3.4.2-5.8.8-6.1 1.5-.3 1 1.5 1.3 6.7 1.3 6.1 0 7.2.3 8.6 2.2l1.6 2.3-8.1.5c-4.4.3-8 .9-8 1.5s3.9 1.1 9 1.3c7.1.2 9.2.6 9.7 1.8 1 2.6-1.7 3.4-11 3.4-6.6 0-8.8.3-8.5 1.2.3.8 2.8 1.4 6.6 1.6 3.4.2 6.2.7 6.2 1.2 0 1.9-4.6 4-8.8 4-3 0-4.2.4-4 1.2.3.7 1.4 1.4 2.6 1.6s2.2.7 2.2 1.2c0 1.5-5 4.1-6.4 3.3-.8-.4-5.3-4.6-10.1-9.2-6-5.9-8.4-8.9-8-10 1.1-2.9 19-33.1 19.6-33.1.3 0 1.1 1.1 1.7 2.5m2.4 68.2c2.6 2.6 4.8 5.2 4.8 5.8 0 1.6-8.3 9.5-10 9.5-1.6 0-10-7.9-10-9.4 0-1 9-10.6 9.9-10.6.3 0 2.7 2.1 5.3 4.7m-51.9 10.7c4.8 5.2 8.7 9.8 8.7 10.3s-1.1 2-2.5 3.3l-2.5 2.3v-2.6c0-1.7-.5-2.7-1.5-2.7-1.1 0-1.5 1.1-1.5 4.3 0 4.1-2.1 8.7-4 8.7-.5 0-1-2.8-1.2-6.3-.4-9.1-2.2-7.6-2.8 2.5-.5 8.5-1.9 12.3-4 10.2-.5-.5-1-4.9-1.2-9.8-.2-6-.7-9.1-1.5-9.4-1-.3-1.3 1.8-1.3 8.3v8.7l-2.2-1.4c-2-1.3-2.3-2.6-2.6-8.7-.4-8.9-2.5-9.4-3-.8-.2 3.1-.6 5.7-.9 5.7-2.2 0-4.3-3.7-4.3-7.7 0-4.3-1.2-5.7-2.4-2.7-.3.9-.6 2.7-.6 4 0 2.2-.2 2.3-2 1.2-1.1-.7-2-2-2-2.8s-.5-2.2-1-3c-.9-1.3-1.2-1.3-2 .2-.9 1.4-1.5 1.5-3.5.6-1.4-.6-2.5-1.4-2.5-1.8 0-.8 33.1-20 34.5-20 .6 0 4.9 4.3 9.8 9.4m123.7.8c16 9.3 16 9.3 13.8 11.1-2.1 1.7-2.3 1.7-3.4.2-1.5-2-3.4-1.2-3.4 1.4 0 2.2-2.5 4.5-4 3.6-.5-.3-1-2-1-3.6 0-5-2.5-2.9-2.8 2.3-.3 4-2.4 7.9-3.6 6.7-.2-.2-.7-2.9-1-5.9s-.5-5.6-.6-5.8c0-.1-.4-.2-1-.2s-1 3-1 6.9c0 6.1-.3 7.2-2.2 8.6l-2.3 1.6-.5-8.2c-.3-5.3-.9-8.4-1.7-8.7-1-.3-1.3 2-1.3 9.2 0 9.6-.5 11.1-3.4 10-1.3-.5-1.6-2.3-1.6-10s-.3-9.4-1.5-9.4-1.5 1.4-1.5 6.5c0 3.6-.4 6.5-.9 6.5-2 0-4.1-4.6-4.1-8.8 0-3-.4-4.2-1.2-4-.7.3-1.4 1.4-1.6 2.6s-.6 2.2-.9 2.2c-1.3 0-4.3-3.4-4.3-4.7 0-2.5 17.3-20.4 19.2-19.9 1 .2 9 4.6 17.8 9.8m-54.1 4.2 5.4 5.4-4.8 5.1c-2.6 2.8-5.3 5.1-5.9 5.1-1.5 0-10.6-8.9-10.6-10.4 0-1.1 9-10.6 10-10.6.3 0 3 2.4 5.9 5.4m-33.4.6 5 5-5.3 5.3-5.2 5.2-5.2-5.2-5.3-5.3 5-5c2.7-2.7 5.2-5 5.5-5s2.8 2.3 5.5 5m15.7 14.7c2.6 2.6 4.8 5.2 4.8 5.8s-2.2 3.3-5 6l-5 4.9-5-4.9c-2.7-2.7-5-5.4-5-5.9 0-1 9-10.6 9.9-10.6.3 0 2.7 2.1 5.3 4.7m6.1 37.9c5.1 4.7 9.4 9 9.5 9.5.4.9-13.8 25.9-18.1 32.3l-2 2.8-1.3-2.3c-1.8-3.2-1.7-3.9.2-3.9 2.6 0 .9-2.5-1.9-2.8-3.3-.4-5.5-3.7-3.1-4.6.9-.3 2.7-.6 4-.6 4.5 0 2.4-1.7-2.7-2.2-4.5-.5-6.8-1.8-6.9-4 0-.4 2.6-.8 5.7-1 3.4-.2 5.8-.8 6.1-1.6.3-.9-1.5-1.2-6.7-1.2-6.1 0-7.2-.3-8.6-2.3l-1.6-2.2 8.1-.5c11.2-.7 10.6-2.4-1-3-8.7-.5-9.5-.7-9.5-2.5s.8-2 9.8-2.3c7.7-.2 9.7-.6 9.7-1.7 0-1.2-1.5-1.5-6.5-1.5-3.6 0-6.5-.3-6.5-.7 0-.3.7-1.5 1.7-2.5 1.1-1.3 3-1.8 6.5-1.8 3.6 0 4.8-.4 4.8-1.5 0-1-1-1.5-3.2-1.5h-3.1l2.3-2.5c1.3-1.4 3-2.5 3.8-2.5s5.5 3.9 10.5 8.6"/><path d="M66.7 22.2c-.9.5-1.7 1.4-1.7 1.9 0 1.7 21.2 33.1 21.8 32.4.8-.8-15.9-34.3-17.3-34.9-.6-.2-1.9 0-2.8.6M176.6 39.6c-4.7 9.7-8.4 17.9-8.2 18.2.8.7 22.7-32.9 22.3-34.2-.2-.6-1.5-1.2-2.9-1.4-2.5-.3-3.1.7-11.2 17.4M22.4 66.4c-1.1 2.9.4 4.5 8.8 8.7C45.3 82.2 58.1 88 57.4 86.9c-.8-1.4-30.5-21.1-32.6-21.7-1-.2-2 .2-2.4 1.2M214.3 75.7c-9 6-16.3 11.1-16.3 11.5 0 .7 23.7-10.2 31.5-14.5 3-1.7 4-2.9 4-4.7 0-1.4-.6-2.6-1.5-2.7-.8-.2-8.8 4.5-17.7 10.4M48.2 185.6c-13.5 8.8-16.3 11-16 12.8.6 4 4.4 2.4 14-5.9 13.9-12 19.9-17.5 19.1-17.5-.5 0-8.1 4.8-17.1 10.6M200.5 184.4c15.9 14.2 19 16.6 21.4 16.6 1.6 0 2.1-.6 2.1-2.4 0-2-2.6-4.1-15.6-12.6-8.6-5.6-16.3-10.4-17.2-10.8-1-.3 3.3 3.8 9.3 9.2M95.7 202.3C93.4 205.8 79 234.8 79 236c0 1.4 3.4 3 4.8 2.1 1-.6 14.6-38.1 13.8-38.1-.2 0-1.1 1-1.9 2.3M159 201.7c0 2.4 11.3 34.5 12.7 35.9 1.6 1.6 5.3.3 5.3-1.9-.1-1.6-17.9-35.5-18-34"/></svg>