<svg xmlns="http://www.w3.org/2000/svg" width="170.667" height="170.667" viewBox="0 0 128 128"><path d="M24 34.9c-35.1 11.55-28.1 58.15 9 59.85l8.5.4L61 75.6 80.5 56h8.45c8.35 0 8.45-.05 13.15-4l4.7-3.95 2.95 2.75c9.95 9.25 7.9 25.25-3.95 31.45-8.55 4.4-16.75 3.05-23.7-3.9l-4.45-4.45-3.4 3.35-3.35 3.35 4.3 4.6c23.25 24.7 63.9-3.6 48.5-33.75-5.6-10.9-14.85-16.5-28.55-17.25l-8.3-.45-19.75 19.6L47.4 73h-8.55c-8.55 0-8.55 0-13.1 4l-4.55 4-2.95-2.75c-9.95-9.3-7.95-25.3 3.95-31.5 8.55-4.4 16.75-3.05 23.7 3.9l4.45 4.45 3.4-3.35 3.35-3.35-4.3-4.6C45.4 35.95 32.7 32 24 34.9"/></svg>