<svg xmlns="http://www.w3.org/2000/svg" width="341.333" height="341.333" viewBox="0 0 256 256"><path d="M113.7 26.1c-14.5.7-17.5 1.1-22 3.2C84.5 32.6 75 41.9 75 45.6c0 2.4-.9 3.5-4.8 5.9-2.6 1.6-12 10-21 18.5C27 91.1 25 95.3 25.2 120.1c0 6.8-.5 17.4-1.2 23.4-1.8 15.8-1.1 17.8 12.8 32.3 10 10.5 11 11.3 15.6 12.1 5.5 1 7.6 3 7.6 7.3 0 1.6.5 2.8 1.3 2.8.6 0 3.6 3.6 6.6 8.1 4.1 6.2 6.2 8.4 9.1 9.5 2.6 1 4.2 2.6 5.1 4.6 1.5 3.6 5.9 5.7 19.9 9.5 8.3 2.3 11.5 2.6 25.5 2.7 17.1 0 25.3-1.3 39.5-6.7 5.5-2 6.6-2.8 7-5.1.3-1.8 1.6-3.4 3.6-4.4 1.6-1 14.3-13.2 28-27.2 28.3-28.8 28.3-28.9 27-41.8-.4-3.7-1.1-15.5-1.6-26.2-1.1-27-2.1-29.5-19.7-46.3-8.1-7.7-9.6-8.7-12.8-8.7-2 0-4.5-.5-5.7-1.1-1.7-.9-1.9-1.7-1.4-5.4.6-3.8.4-4.5-2-6.4-1.5-1.2-3.7-2.1-4.9-2.1-2.3 0-3.5-2.2-3.5-6.7 0-2.6-8-9.4-16.3-13.8-10.3-5.6-15.4-6.1-51-4.4M99 53.8c1.2 3.1 2.4 7.9 2.6 10.7l.5 5-3.6-3.9c-5-5.6-8.5-13.3-9.1-20.2l-.5-5.9 4 4.3c2.2 2.4 5 6.9 6.1 10m65.7-8.4c-.3 2.9-1.5 7.3-2.7 9.7-2.7 5.3-8.2 12.8-9.4 12.9-1.6 0 .3-10 2.9-15.8 2.9-6.4 7.1-12.2 8.7-12.2.7 0 .9 1.8.5 5.4m-59.4 57c-.4.6-2.6 4.1-5 7.8-2.4 3.6-4.8 8.9-5.5 11.7-1 4.5-.9 5.3.7 7.1 1 1.1 3.6 2.3 5.8 2.7 3.5.5 11.5 5.9 10.4 7-.2.2-3.3-.6-6.8-1.6-3.5-1.1-6.5-1.8-6.7-1.6-.8.7 4.6 7.2 7.7 9.5 7.1 5 14.3 7.4 22.1 7.5 6.6 0 8.5-.5 14.3-3.3 6.4-3.2 13.7-10 13.7-12.9 0-1.7.3-1.8-7.5 1.8-3.7 1.6-7 2.8-7.3 2.5-1.2-1.2 7-7.5 10.6-8.1 8.7-1.5 11.9-4.3 10.8-9.6-.3-1.5-3.2-7-6.5-12.1s-5.5-9.5-5-9.7c1.3-.4 26.9 25.8 26.9 27.6 0 .7-1.5 4.4-3.2 8.1-3.8 7.7-9.5 13.7-19.7 20.7-7.9 5.4-9.7 8.6-3.3 6 2-.9 9.6-4.8 16.7-8.7l13-7.1 5.4 1.2c11.2 2.2 24.1 10.1 24.1 14.6 0 3.1-3.5 7.2-8.3 9.6-5.6 2.9-14.3 11.3-17.5 17.1-1.5 2.6-3.2 4.8-3.9 4.8-2 0-7.3 5.1-9.4 9.1-1.1 2.2-2.2 3.9-2.5 3.9-1.9 0-6.5-3.9-8.5-7.2-6.8-11.3-10-15.8-11-15.8-1.4 0-.4 6.3 2.2 13.9 1.1 3 1.9 7.1 1.9 9.2 0 6.2-1 6.4-29 6-13.5-.1-24.6-.4-24.7-.4 0-.1 1.2-6 2.7-13.2 1.6-7.1 2.6-13.2 2.4-13.4-1.1-1.2-4.2 2-8 8.4-5.1 8.3-8.1 10.2-12.3 8-1.6-.8-3.2-2.3-3.5-3.3-.3-.9-2.2-2.6-4.1-3.7-2-1-6-5-9-8.9-7.2-9.6-11.2-13.2-16.4-15.1-5.7-2-7.1-3.2-7.1-6.2 0-3.5 4.1-6.8 17.6-14l11.6-6.2 3.2 3.3c3.4 3.7 9.2 6.9 17.5 9.7 3 1.1 7 2.8 8.8 3.9 1.9 1.1 3.8 2 4.4 2 2.5 0 .1-2.5-8.8-9.1-15.6-11.6-19-15.3-20.7-23.6-.7-2.9.1-4 12.1-17.6 7.1-8 13.4-14.2 14-14 .7.3 1 1 .6 1.7M54.1 113c14.1 3.8 19.1 7.3 14.7 10.4-1.8 1.3-1.9 1.8-.9 4.7.6 1.7 1.1 4.3 1.1 5.6 0 3.1-4.2 7.3-7.4 7.3-2 0-3 .9-4.3 3.7-1.5 3.2-2.7 4.1-7.7 5.8-4 1.3-6.2 2.7-6.9 4.2-1.6 3.6-2.5 2.7-3.8-3.5-.8-4.1-.9-9.7-.3-19.7.5-7.7.8-16.9.6-20.3l-.2-6.4 3.4 3c2.2 1.9 6.1 3.6 11.7 5.2m165 7.1c1.4 12.1.4 24.3-2.7 33.3l-1.7 4.9-1.3-3.2c-1.4-3.3-4.7-5.1-9.2-5.1-2.1 0-3.1-.8-4.2-3.3-1-2.1-3.4-4.2-7-6.2-6.1-3.4-7-5.3-5-11.8 1-3.5 1-4-.9-5.4-3.5-2.4-1-4.7 9.1-8.7 5.1-2 11.8-5 14.8-6.5 6.7-3.5 6.4-3.9 8.1 12"/><path d="M141 152.8c-8.1 3.9-17.7 4.2-25.9.9l-6.2-2.5 2.4 3.1c6.2 8 13.2 11 22.2 9.3 3.6-.7 8.2-4.6 12.4-10.5 2.7-3.7 2.3-3.7-4.9-.3M117.1 172c-11.4 2.4-5.3 5.5 10.9 5.5 9.5 0 12.1-.3 15-1.9l3.5-2-3.5-.8c-5.8-1.3-21.2-1.8-25.9-.8"/></svg>