<svg xmlns="http://www.w3.org/2000/svg" width="341.333" height="341.333" viewBox="0 0 256 256"><path d="M123.6 11.2C118.7 20 19.4 119.2 10.8 124c-3.2 1.8-5.8 3.6-5.8 4s3 3.1 6.8 5.8c8.3 6.3 107.7 105.9 112.1 112.4 1.8 2.7 3.6 4.8 4.1 4.8s2.3-2.1 4.1-4.8c4.4-6.5 99.4-101.7 110.2-110.4 4.8-3.9 8.7-7.4 8.7-7.8 0-.5-2.6-2.2-5.7-4-8.7-4.8-106.8-102.8-112.5-112.3C130.6 8 128.4 5 128 5c-.5 0-2.4 2.8-4.4 6.2m10.9 42.2c2.8 4.3 6.7 9.8 8.8 12.1 6.1 7 4.2 7.6-4.7 1.5-9.6-6.5-11.6-6.5-21.3.1-7.8 5.2-9.6 4.8-5.1-1.1 1.8-2.5 5.8-8 8.8-12.3l5.4-7.8.4-12.7c.5-17.6 1.5-18.4 2.2-1.7l.5 14zm-3.7 44c1.5.8 8.4 7.2 15.5 14.4 13.2 13.4 14.7 16 11.1 19.6-3.3 3.3-5.6 1.9-20.1-12.6-14.9-14.9-16.2-17-12.6-21 1.9-2.2 2.6-2.2 6.1-.4m-84 14c1.8 3 3.2 3.8 10.8 6.3 10.6 3.4 11.8 4.8 8.1 9.6-4.3 5.6-3.7 8.2 3.4 15 20.8 19.8 46.6 43.6 49.6 45.7 4.6 3.2 13.3 3.5 18 .5 1.7-1.1 15.1-13.2 29.7-26.8 24.6-22.9 26.6-25.1 26.6-28.2 0-2.2-.9-4.5-2.7-6.5-3.7-4.4-2.4-5.9 7.6-9.2 9-2.9 10.9-4.1 12.2-7.5.5-1.3 1.2-2.3 1.7-2.3 1 0 22.2 20.7 22.2 21.8 0 .4-21.5 22.2-47.7 48.4C143 221.3 138.1 226 134 227c-5.2 1.4-10.3.9-15.1-1.4-1.9-.9-24.5-22.7-50.4-48.6l-47-47 11-11c6-6 11.3-11 11.6-11 .4 0 1.6 1.5 2.7 3.4m84.9 11.8c15 14.9 16.5 17.4 12.7 21.2-3.2 3.3-5.5 1.9-20.1-12.6-15-14.9-16.2-17-12.6-21 3.1-3.5 5.3-2.1 20 12.4m-13 13c7.8 7.9 14.2 15 14.3 15.8.5 3.5-.1 5.1-2.4 6.1-3.6 1.7-7.4-1.1-21.5-15.6-12.5-12.9-13.7-15.1-10.4-18.7 3.2-3.6 5.4-2.2 20 12.4"/><path d="M64.7 155.9c-8.5 3.1-9.5 3.7-8.1 5 1.2 1.1 19.6-4.9 20.2-6.7.6-1.9-3.6-1.4-12.1 1.7M179.2 154.2c.6 1.6 19.3 7.8 20.8 6.8 1.6-1-1-2.4-10.3-5.6-7.8-2.6-11.1-3-10.5-1.2M85 166.1c-12.5 3.4-17 5.1-17 6.4 0 2.6 3.8 2.6 13.2 0 5.1-1.5 9.9-2.8 10.7-3.1 1.1-.4 1-.8-.4-2.4-1-1.1-2.1-2-2.4-1.9-.3 0-2.2.5-4.1 1M164.2 167.2c-2.1 2.1-1.4 2.5 6.1 4.3 3.9 1 8.8 2.4 10.8 3 2.3.9 4.1 1 5.2.3 3.6-2 1.6-3.6-7.8-6.2-10.6-2.9-12.6-3.1-14.3-1.4M93.1 184.1c-10.2 2.3-11.3 3.1-8.3 6.1l2.2 2.2 8.4-1.7c4.6-.9 9.7-1.7 11.2-1.8 1.6 0 3.8-.4 4.9-.8 1.8-.7 1.8-.9-.9-3.4-3.4-3.2-5.8-3.3-17.5-.6M146 184.6c-2.1 2.1-2.2 2.7-1 3.4.8.5 2.6 1 3.9 1s6.4.8 11.3 1.7l8.8 1.7 2.2-2.2c3.1-3 1.9-3.8-9.2-6.2-12.2-2.5-13.2-2.5-16 .6M114.5 202.1c-5.5.4-11.1 1.2-12.4 1.7l-2.4.9 3.5 3.9 3.6 3.9h21.1l21.2-.1 3.6-3.7c2.1-2 3.5-3.9 3.2-4.2-2.2-2.1-26.7-3.6-41.4-2.4M116 220.8c0 3.6 15.5 5.6 21 2.7 4.1-2.1 3.9-3.9-.2-2.9-4.4 1.1-13.5 1.1-17.5.1-2-.5-3.3-.5-3.3.1"/></svg>