<svg xmlns="http://www.w3.org/2000/svg" width="341.333" height="341.333" viewBox="0 0 256 256"><path d="M131.8 3.7c-.8 1-2.2 6.6-3.1 12.6-.9 5.9-2.1 11.6-2.6 12.6-.8 1.4-2.7 1.9-9.3 2.4-4.6.3-10.4.9-12.9 1.3l-4.7.6-1.7-5.8c-2.2-7.7-4-10.4-6.9-10.4-3.3 0-4.5 3.9-3.9 12.7l.6 7.1-3.2 1.6c-1.7.9-3.6 1.4-4.2 1-2.4-1.4-8.4-17.8-11.3-30.9-.8-3.6-1.7-5.1-3.1-5.3-3.1-.7-4.5 2.6-4.5 10.3 0 11-2 33.4-3.3 37.1-.7 1.8-5.1 7.3-9.8 12.3l-8.7 9-.4-9.7c-.6-13.5-3.6-18.8-8.1-14.3-1.8 1.8-2.1 4-2.7 22.8-.6 17.9-1.1 21.8-3.1 28-1.3 4-2.6 7.3-3 7.3-.3 0-1-2.3-1.5-5.2-1.1-6.1-3.4-8.2-6.1-5.5-2.6 2.6-3 23.3-.8 37 6 35.4 17.6 60 37.1 78.8 21.5 20.5 47.8 30.1 78.9 28.6 36.8-1.8 65-18.8 86.8-52.3 10.8-16.6 10.2-15.6 13.7-27.3 3.6-12.1 6.2-23.4 10.6-46.6C244 95.2 244.8 87 243 87c-2.3 0-4.1 5.5-6.5 19.5-2.5 14.7-4.9 25.2-5.8 26.2-.3.2-.8-2.2-1.2-5.4-1.1-10.2-3.6-21.7-5.7-26.3-3.1-6.7-3.4-18.3-.9-40.4 1.3-11.8 1.7-19.4 1.2-19.9-1.9-1.9-3.8.3-6.1 7-2.8 8.4-8.6 20.2-10.3 20.8-1.6.6-19.5-16.8-20.8-20.3-.6-1.5-1.4-8.8-1.8-16.3-.7-14.1-1.5-16.9-5.1-16.9-3.5 0-5.2 1.3-7 5.4-2.6 6.1-7.5 12.3-11.1 14.1-2.8 1.5-3.7 1.5-9.3.1-3.3-.8-7.3-1.8-8.8-2.1-3.1-.6-3.1-.7-2.8-15.5.1-7.1-1.2-12.9-3.2-14.2-2.1-1.3-4.4-.9-6 .9m5.7 42.4c16.7 6.2 18.8 20.2 4.2 27.3-20.5 9.9-49.8-.4-44.8-15.7 3.8-11.3 25.1-17.4 40.6-11.6M78.4 62.2c3.8 5.4.2 12.3-10.2 19.9C57.9 89.6 56.5 90.3 54 89c-2.6-1.4-2.6-5.5.1-9.9 1.1-1.9 5.6-6.9 10-11.3 8.6-8.4 11.5-9.6 14.3-5.6m101.3 1.6c5 4 13.1 13 15.1 16.9 3.3 6.2-.3 10.7-6 7.7-4.4-2.3-16.3-11.8-18.2-14.6-2.6-3.6-3-8.5-1.2-11.3 2.3-3.4 4.6-3.1 10.3 1.3M83.1 95.9c3.5 2.8 2.9 7.6-1.9 14.4-2.2 3.1-4.5 7.7-5.1 10.1-1.6 6.5-3.3 7.4-7.9 4.2-2.6-1.8-5.1-2.6-8-2.6-7.1 0-9.9-4.9-7.2-12.7 1.5-4.2 5.2-5.8 9-3.8 1.6.8 3.2 1.9 3.5 2.5 1.2 2 2.6.9 4.6-3.8 2.3-5.3 4.5-8.1 7.4-9.3 2.9-1.1 3-1.1 5.6 1m90.3 1c1 .9 2.9 4 4.2 6.8 1.2 2.9 2.5 5.3 2.8 5.3s2.2-1.1 4.2-2.5c4.6-3.1 4.9-3.1 8.5.4 2.3 2.3 2.9 3.9 2.9 7 0 5.7-2.6 8.1-8.6 8.1-3.5 0-5.4.6-7.6 2.5-1.6 1.4-3.3 2.5-3.8 2.5-1.8 0-3.7-3-4.3-6.8-.4-2.1-1.8-5.4-3.1-7.3-3.6-4.9-6.6-10.6-6.6-12.4 0-.9 1.1-2.7 2.5-4.1 2.7-2.7 5.4-2.6 8.9.5M50 98c0 .5-.4 1-1 1-1.6 0-8 6.1-9.6 9.1-.7 1.5-1.4 4.4-1.4 6.3 0 3.1.5 3.8 3.8 5.5 7.6 3.9 7.6 3.8 8.4 27.8.8 22.8 1.4 25.7 6.4 28.9 1.7 1.2 2.3 1.2 3.8.1 1.8-1.3 1.8-1.6-.8-8-3.2-8.1-5.5-26.4-3.7-30.3 1.4-3.2 5.3-4.7 8.6-3.2 3.1 1.4 4.3 5.1 5.4 16.7 1.1 12.2 2.1 13.2 9.2 10.3 2.8-1.2 6.4-2.2 7.9-2.2 2.8 0 4-1.5 4-5.1 0-2.1-6.5-5.9-10.2-5.9-2.2-.1-2.2-.1-.4-1.5 1.1-.8 3.7-1.5 5.9-1.5 3.1 0 4.6.7 7.3 3.4 5 5 4.6 7.9-2.6 16.6-9.5 11.4-13.2 20.8-11 27.5 1.9 5.7 8.3 8.1 12.9 4.9 2.2-1.6 2.4-1.5 6.7 3.4 2.5 2.8 6.7 6.5 9.4 8.3 3.5 2.3 5.7 4.7 7.9 8.9 4.8 9 9.4 9 14.2-.1 2.3-4.3 4.5-6.7 8.1-9 2.7-1.7 6.8-5.4 9.2-8.1 4.3-4.9 4.5-5 6.7-3.4 6.9 4.8 14.8-2.2 13.3-11.9-.7-4.9-5.2-13.1-11.2-20.3-7.4-8.9-7.8-11.8-2.8-16.8 2.6-2.6 4.3-3.4 6.9-3.4 6.8 0 9.1 2.3 3.4 3.4-4.6.9-7.9 4.1-7.5 7.4.2 2 .9 2.8 2.8 3 1.4.2 5.2 1.2 8.4 2.4l5.9 2.2 1.7-2.1c1.2-1.5 1.9-5 2.4-11.3.8-10.6 1.7-13.3 4.9-15.5 2.9-1.9 7-.7 8.7 2.5 1.8 3.5-.4 22.7-3.6 30.7-2.6 6.3-2.6 6.7-.8 8 2.3 1.7 5 0 7.8-4.6 1.6-2.7 1.9-6.1 2.4-24.2.5-20.6.6-21.2 3-24 1.3-1.7 4-3.6 5.8-4.4 2.9-1.2 3.4-1.9 3.4-4.8 0-4.2-5-12.2-9-14.5-5.9-3.4-2.3-4.4 4.5-1.3 5 2.2 9 6.8 12.4 14.1 2.5 5.2 2.6 6.3 2.5 21.5-.1 29.9-7.3 51.3-22.3 66.3-9.3 9.3-23.6 18.4-36.3 23.2-13.1 4.8-22.6 6.4-38.8 6.4-17.7 0-25.4-1.6-40.9-8.2-24.2-10.5-39.6-25.1-47.3-45-5.4-13.9-7.1-23.9-7.2-42.2-.1-15.8 0-16.7 2.5-22 4.5-9.7 11.4-15.9 17.7-16 1.2 0 2.2.4 2.2 1m90.5 5.9c10.6 5.3 14.5 12.1 11 19.5-3.7 7.7-14.3 12.6-27.5 12.6-9.1 0-16.2-1.9-21.7-5.9-10.6-7.7-8.9-19.2 3.8-25.7 7-3.5 11.4-4.4 20.3-4 6.2.3 9.1 1 14.1 3.5m-4.6 58.8c8.1 5 12.5 15.2 10.7 24.8-.9 4.5-6.8 11.2-12.1 13.6-5.4 2.5-15.7 2.5-21 0-4.7-2.2-9.9-7.4-11.4-11.4-1.9-5-1.3-11.9 1.5-17.5 6.1-12.3 20.7-16.6 32.3-9.5"/></svg>