<svg xmlns="http://www.w3.org/2000/svg" xml:space="preserve" width="512" height="512" viewBox="0 0 135.467 135.467"><g transform="translate(-12.05 -7.25)scale(1.12618)"><path d="M59.115 12.465a42.02 42.02 0 0 0-42.02 42.02 42.02 42.02 0 0 0 42.02 42.02 42.02 42.02 0 0 0 42.02-42.02 42.02 42.02 0 0 0-42.02-42.02m-.044 17.545a24.254 24.254 0 0 1 24.253 24.253 24.254 24.254 0 0 1-24.253 24.254 24.254 24.254 0 0 1-24.254-24.254A24.254 24.254 0 0 1 59.071 30.01" style="display:inline;fill:#000;fill-opacity:1;stroke:none;stroke-width:.267407"/><path d="M-5.048 124.323h15.636a2.516 2.516 0 0 1 2.514 2.515l.245 34.859c.01 1.393-4.817 6.427-6.21 6.387l-9.358-.267c-1.393-.04-5.272-4.86-5.275-6.254l-.066-34.725a2.51 2.51 0 0 1 2.514-2.515" style="fill:#000;fill-opacity:1;stroke:none;stroke-width:.266917" transform="rotate(-45)"/><rect width="12.187" height="3.482" x="-3.248" y="121.619" ry=".396" style="fill:#000;fill-opacity:1;stroke:none;stroke-width:.333;stroke-dasharray:none" transform="rotate(-45)"/></g></svg>