<svg xmlns="http://www.w3.org/2000/svg" width="682.667" height="682.667" version="1.0" viewBox="0 0 512 512"><path d="M83 229v173h36v54l18.6-.2 18.6-.3 14.3-26.5 14.4-26.5h142.2l14.4 26.5 14.3 26.5 18.6.3 18.6.2v-54h36V56H83zM280.8 80.6l4.2.7v68.4l4.5 1.7c7.5 2.9 19.6 11.4 27 19.1 6.5 6.7 14.5 18.7 17.5 26.2l1.2 3.3h68.5l.7 7.7c1.3 13.5 1.4 28.4.3 39l-1 10.3-34 .2-34 .3-4.1 8.1c-5.2 10.1-9.7 16.3-17.8 24-6.9 6.7-15 12.2-23.4 16.1l-5.4 2.4V342c0 31.4-.1 33.9-1.7 34.4-2.1.6-21 2-27.3 2s-25.2-1.4-27.2-2c-1.7-.5-1.8-3-1.8-34.4v-33.9l-5.4-2.4c-8.4-3.9-16.5-9.4-23.4-16.1-8.1-7.7-12.6-13.9-17.8-24l-4.1-8.1-34-.3-34-.2-1-10.3c-1.1-10.6-1-25.5.3-39l.7-7.7h68.5l1.2-3.3c3-7.5 11-19.5 17.5-26.2 7.4-7.7 19.5-16.2 27-19.1l4.5-1.7V81.2l6.3-.6c3.4-.3 7.6-.8 9.2-1 3.9-.6 32.7.2 38.3 1"/><path d="M248.7 193c-15 3.8-25.8 15.3-28.6 30.6-2.7 14.5 6.2 31 20.7 38.1 5 2.5 6.8 2.8 15.2 2.8s10.2-.3 15.2-2.8c11-5.4 18.8-15.8 20.7-27.8 2.6-15.5-7.6-33.1-22.5-38.8-6.7-2.5-15.3-3.4-20.7-2.1"/></svg>