<svg xmlns="http://www.w3.org/2000/svg" width="341.333" height="341.333" viewBox="0 0 256 256"><path d="M120.2 16.9C114 19 110 22.4 110 25.6c0 5.6 12.5 11.3 21.8 9.9 17.1-2.6 19.2-14.4 3.2-18.9-7-2-8.2-2-14.8.3M85.5 22.9c-9.9 4.1-17.3 8.3-25.2 14.2L55 41l2.9 4.8c1.6 2.6 3.3 5.9 3.6 7.5 1.1 4.3 2.1 4.1 5.6-1.5 5-7.8 12.3-16.3 21.2-25.1 4.5-4.2 7.6-7.7 7.1-7.6-.5 0-4.9 1.7-9.9 3.8M167.4 26.1c8 7.4 17.1 18.3 22.1 26.2 1.7 2.5 3.3 4.6 3.7 4.7.3 0 .9-1.3 1.3-2.9.3-1.6 1.9-5 3.6-7.5 1.6-2.6 2.9-5 2.9-5.4-.1-1.2-11.2-8.8-19-13.1-6.5-3.4-19.9-9.1-21.6-9.1-.3 0 2.8 3.2 7 7.1M85.2 46.4C78.6 53.2 72.7 59.8 72 61l-1.2 2.3 3-2.2c4.9-3.5 15-8.9 22.6-12.2 3.9-1.8 7.2-3.3 7.4-3.4s-.8-2-2.3-4c-1.4-2.1-2.5-4.6-2.5-5.6 0-1.1-.4-1.9-.9-1.9-.4 0-6.2 5.6-12.9 12.4M155.8 39.9c-1.5 3.1-2.2 5.8-1.7 6 3.2 1.1 23 11.2 25.9 13.3 6.3 4.3 6.5 4.3 3-.2-4.9-6.2-16.7-18.6-21-22l-3.5-2.8zM103.8 51.5c-16.3 6.7-35.2 18.7-38.7 24.6-3 5-7.8 20.5-9.7 31.3-1.3 7.8-1.5 13.4-1.1 26 .3 8.9 1 17.7 1.5 19.6l.8 3.5 6.5-8.9c3.5-4.9 8.9-12.3 12-16.5l5.5-7.6 8.7-2.8c7.9-2.6 8.7-3 8.2-5-3.6-15.4-3.6-15.3 0-27.8 1.9-6.5 5.5-17.1 8-23.6 5.7-14.5 5.9-15.3 4.9-15.3-.5.1-3.5 1.2-6.6 2.5M122 62.1c-4.4 11.5-8.3 23.3-10.4 32.1l-.6 2.7 4.7-2.1c6.1-2.7 18-3 23.7-.5 2.2 1 4.1 1.5 4.4 1.2 1.4-1.4-14-46.5-16-46.5-.4 0-3 5.9-5.8 13.1M145 50c0 .5 1.7 5.4 3.8 10.7 6.1 15.4 8.1 21.2 10.6 30.6 2.2 8.2 2.2 9.1.9 16-.7 3.9-1.2 8-1.1 9 .2 1.3 2.8 2.7 8.7 4.7 4.7 1.7 8.7 3.4 9 3.8.3.5 5.5 7.7 11.5 16.2 9.2 12.8 11.1 14.9 11.7 13.2 1.7-4.6 3.1-23.1 2.5-32.7-1.3-20.5-8-43.3-14.5-49.3-5.3-5-20.3-13.9-31.4-18.9-10.2-4.5-11.7-4.9-11.7-3.3M43.4 54.2c-9.3 9.7-18.2 24.5-23.3 38.5-2.5 6.9-4.6 15.5-6.6 27.5l-.6 3.6 5.8 1.7c7.6 2.2 15.2 6.6 20.8 12.1 2.5 2.4 4.7 4.4 4.8 4.4s.2-7.5.2-16.8c0-19.4 1.4-27.8 7.7-44.4l4-10.7-2.1-6.3c-1.2-3.5-3.1-8-4.4-10.1L47.4 50zM208.3 51.2c-1.8 2.2-4.9 9-6.7 14.5-1.6 5-1.6 5.3.2 9 2.9 5.6 7.8 21.7 9.3 30.3.7 4.1 1.3 14.1 1.4 22.1v14.6l5.5-5c5.7-5.2 15-10.2 20.8-11.3 1.9-.4 3.6-1.3 3.9-2 .7-1.9-1.5-14.5-4.4-24.3-4.4-15.5-13.7-32.2-24.6-44.4-3.4-3.9-4.5-4.6-5.4-3.5M122.5 108.5c-4.8 1.7-9.2 6.6-10.6 11.9-3.7 13.8 10.6 25.9 23.3 19.7 13.3-6.5 12.9-25.1-.7-31.2-4.8-2.2-6.7-2.3-12-.4M91.9 130.7c-.9 1-5.6 7.4-10.5 14.3-4.8 6.9-10.5 14.7-12.6 17.5-4.8 6.3-4.8 7.5 0 3.7 5.7-4.5 17-10.8 24.7-13.8 3.9-1.6 7.1-2.9 7.3-3 .1 0-1-2.4-2.4-5.3-1.5-2.8-3.2-7.4-3.8-10.2-1.1-4.7-1.3-4.9-2.7-3.2M161.6 133.7c-.3 2.6-2 7.2-3.6 10.1l-2.9 5.3 3.7 1.5c9.1 3.7 16.7 7.6 23.4 12.1 4 2.6 8 5.2 8.8 5.7s-.2-1.3-2.2-4c-1.9-2.7-8.4-11.7-14.2-19.9-5.9-8.3-11.1-15.1-11.5-15.3-.5-.1-1.1 1.9-1.5 4.5M14.4 140.7c1.6 16 7.4 33.6 15.5 47.2 4.7 7.7 15.1 21.5 15.8 20.8.1-.2-2.4-6.2-5.6-13.3-8.3-18.3-8.4-19.7-.1-5.5 3.9 6.8 8.8 14.9 10.9 18 5.7 8.2 15.2 18.3 20 21l4.2 2.3-6.4-9.3c-6.4-9.4-17-26.9-16.3-26.9.3 0 4.2 4.6 8.9 10.2 11.6 14.1 21 22.8 30.7 28.3.8.5-2.6-3.4-7.6-8.7-10.4-10.9-19.5-24-25.6-36.6-6.4-13.5-29.2-42-41.2-51.5l-3.9-3.1zM232.1 143.2c-13.2 13.1-29.3 34.1-35.1 46-7.4 14.8-20.2 32.5-29.6 40.8-6.3 5.5-3.1 4.1 5.6-2.4 8.4-6.3 14.3-12.5 25-25.8 2.9-3.8 5.5-6.6 5.7-6.4.6.5-6.2 11.8-14.1 23.6-8.5 12.5-8.5 12.5-5.5 10.9 8.4-4.4 22.4-22.1 33.9-42.5 2.8-4.9 5-8.4 5-7.7s-2.7 7.1-6 14.4c-3.4 7.2-5.9 13.3-5.7 13.6.7.6 8-8.6 13.4-16.9 8.6-13.1 15.4-31.9 16.8-46.3.4-3.3.8-7 1.1-8.3.2-1.2.1-2.2-.4-2.2-.4 0-5 4.2-10.1 9.2M110.8 164.5c-1.1 4.2-1.5 4.6-7.8 7-6.8 2.7-18.2 9.1-23.7 13.3l-3.2 2.4-3.6-2.7c-1.9-1.5-3.5-2.3-3.5-1.8 0 3.1 23.5 31.3 26 31.3.5 0 1.8-2 3-4.5 3.3-6.7 8.9-11.2 20.1-15.8l3.5-1.4 1.2-11.5c1.6-15.5 1.6-16.8-.5-16.8-1 0-3.7-.9-6.1-2l-4.2-1.9zM138.2 162.4c-2.8 1.3-5.4 2.5-5.7 2.8s.1 6.3 1 13.4c.8 7.1 1.5 13.2 1.5 13.5 0 .4 2.8 1.6 6.2 2.9 7.3 2.6 16.1 10.4 17.8 15.6.7 1.9 1.5 3.4 1.9 3.4 2.9 0 27.3-29.1 25.7-30.7-.2-.3-1.8.4-3.4 1.6l-2.9 2-8.1-5.3c-4.4-2.9-11.6-6.8-15.9-8.6-9.9-4.3-10-4.3-10.8-9.1-.4-2.1-1-3.8-1.3-3.8-.4.1-3.1 1.1-6 2.3M122.1 211.1c-5.4 1-12.3 5-14.5 8.3-3.9 6-.7 13.4 7.8 17.9 6.2 3.3 19.3 3.1 26.1-.4 5.3-2.7 9.5-7.7 9.5-11.4 0-8.9-16.2-17-28.9-14.4m16.5 8c3.2 1 7.4 4.3 7.4 5.9 0 .4-1.5.1-3.2-.8-4.9-2.5-25-2.4-29.6.1-3.3 1.8-3.3 1.8-2.3-.1 3.2-6.1 16.5-8.5 27.7-5.1"/></svg>